<svg width="350" height="122" viewBox="0 0 350 122" fill="none" xmlns="http://www.w3.org/2000/svg">
<path d="M59.8446 81.3674V81.3674C59.8446 73.6862 54.3112 67.1641 46.8559 65.3147C-59.5766 38.9129 85.0608 -21.3689 97.3232 22.5769C100.01 32.2057 91.0674 40.1979 83.6589 46.9096C74.4543 55.2486 68.8977 68.4785 101.21 81.3674C124.859 90.8009 125.434 114.28 101.21 114.28H94.2285" stroke="white" stroke-width="14" stroke-linecap="square"/>
<rect x="51.8446" y="92.2802" width="15" height="15" rx="7.5" fill="#FFD913"/>
<rect x="67.8446" y="106.28" width="15" height="15" rx="7.5" fill="#FFD913"/>
<path d="M136.521 111.273C135.747 111.273 135.09 111.15 134.553 110.904C134.015 110.649 133.577 110.271 133.24 109.77C132.912 109.268 132.675 108.63 132.529 107.855C132.383 107.081 132.311 106.174 132.311 105.135V101.785C132.311 101.53 132.283 101.334 132.229 101.197C132.183 101.061 132.096 100.965 131.969 100.91C131.841 100.846 131.663 100.81 131.436 100.801C131.217 100.792 130.934 100.787 130.588 100.787V98.5996C130.734 98.5996 130.925 98.5996 131.162 98.5996C131.408 98.5996 131.654 98.6042 131.9 98.6133C132.146 98.6133 132.365 98.6133 132.557 98.6133C132.757 98.6133 132.889 98.6133 132.953 98.6133C133.555 98.6042 134.143 98.5951 134.717 98.5859C135.3 98.5768 135.893 98.5632 136.494 98.5449V105.682C136.494 106.183 136.526 106.63 136.59 107.021C136.654 107.413 136.763 107.742 136.918 108.006C137.082 108.27 137.301 108.475 137.574 108.621C137.848 108.758 138.194 108.826 138.613 108.826C139.388 108.826 140.017 108.703 140.5 108.457C140.992 108.211 141.357 107.892 141.594 107.5C141.694 107.227 141.749 106.93 141.758 106.611C141.776 106.283 141.785 105.941 141.785 105.586V102.045C141.785 101.726 141.758 101.484 141.703 101.32C141.658 101.147 141.566 101.024 141.43 100.951C141.293 100.869 141.102 100.824 140.855 100.814C140.618 100.796 140.304 100.787 139.912 100.787V98.5996C140.35 98.6087 140.783 98.6133 141.211 98.6133C141.639 98.6133 142.127 98.6133 142.674 98.6133C143.239 98.6042 143.79 98.5951 144.328 98.5859C144.866 98.5768 145.408 98.5632 145.955 98.5449V107.951C145.955 108.133 145.978 108.284 146.023 108.402C146.078 108.512 146.169 108.598 146.297 108.662C146.424 108.726 146.598 108.767 146.816 108.785C147.035 108.803 147.313 108.812 147.65 108.812V111C147.222 111 146.839 111 146.502 111C146.174 110.991 145.837 110.986 145.49 110.986C144.889 110.995 144.292 111 143.699 111C143.107 111.009 142.51 111.023 141.908 111.041V109.127C141.298 109.856 140.527 110.398 139.598 110.754C138.668 111.1 137.643 111.273 136.521 111.273ZM161.951 98.6133V100.965L154.131 108.99H158.178C158.515 108.99 158.82 108.986 159.094 108.977C159.367 108.958 159.595 108.908 159.777 108.826C159.969 108.735 160.115 108.598 160.215 108.416C160.315 108.225 160.365 107.956 160.365 107.609C160.365 107.582 160.365 107.523 160.365 107.432C160.365 107.331 160.365 107.227 160.365 107.117C160.365 107.008 160.361 106.908 160.352 106.816C160.352 106.716 160.347 106.652 160.338 106.625C160.447 106.625 160.579 106.625 160.734 106.625C160.889 106.625 161.049 106.625 161.213 106.625C161.377 106.616 161.532 106.611 161.678 106.611C161.833 106.611 161.965 106.611 162.074 106.611V111H149.305V108.539L157.111 100.582H153.215C152.75 100.582 152.385 100.605 152.121 100.65C151.857 100.687 151.656 100.783 151.52 100.938C151.383 101.083 151.292 101.302 151.246 101.594C151.21 101.876 151.187 102.268 151.178 102.77H149.496V98.6133H161.951ZM176.854 98.6133V100.965L169.033 108.99H173.08C173.417 108.99 173.723 108.986 173.996 108.977C174.27 108.958 174.497 108.908 174.68 108.826C174.871 108.735 175.017 108.598 175.117 108.416C175.217 108.225 175.268 107.956 175.268 107.609C175.268 107.582 175.268 107.523 175.268 107.432C175.268 107.331 175.268 107.227 175.268 107.117C175.268 107.008 175.263 106.908 175.254 106.816C175.254 106.716 175.249 106.652 175.24 106.625C175.35 106.625 175.482 106.625 175.637 106.625C175.792 106.625 175.951 106.625 176.115 106.625C176.279 106.616 176.434 106.611 176.58 106.611C176.735 106.611 176.867 106.611 176.977 106.611V111H164.207V108.539L172.014 100.582H168.117C167.652 100.582 167.288 100.605 167.023 100.65C166.759 100.687 166.559 100.783 166.422 100.938C166.285 101.083 166.194 101.302 166.148 101.594C166.112 101.876 166.089 102.268 166.08 102.77H164.398V98.6133H176.854ZM206.262 107.281C206.262 107.655 206.271 107.947 206.289 108.156C206.316 108.366 206.367 108.521 206.439 108.621C206.521 108.712 206.631 108.767 206.768 108.785C206.904 108.803 207.091 108.812 207.328 108.812H207.984V111C207.911 111 207.752 111 207.506 111C207.26 111 206.991 111 206.699 111C206.408 110.991 206.125 110.986 205.852 110.986C205.587 110.986 205.4 110.986 205.291 110.986C205.036 110.986 204.803 110.991 204.594 111C204.384 111 204.179 111 203.979 111C203.787 111.009 203.587 111.014 203.377 111.014C203.167 111.023 202.935 111.032 202.68 111.041L202.27 109.264C202.069 109.583 201.832 109.87 201.559 110.125C201.285 110.371 200.957 110.585 200.574 110.768C200.191 110.941 199.749 111.073 199.248 111.164C198.747 111.264 198.173 111.314 197.525 111.314C196.742 111.314 196.049 111.21 195.447 111C194.855 110.799 194.358 110.526 193.957 110.18C193.565 109.833 193.269 109.428 193.068 108.963C192.868 108.489 192.768 107.988 192.768 107.459C192.768 106.848 192.9 106.297 193.164 105.805C193.438 105.312 193.825 104.898 194.326 104.561C194.837 104.214 195.452 103.95 196.172 103.768C196.892 103.576 197.708 103.48 198.619 103.48C199.212 103.48 199.804 103.517 200.396 103.59C200.989 103.654 201.549 103.754 202.078 103.891V102.318C202.078 101.626 201.837 101.074 201.354 100.664C200.88 100.254 200.141 100.049 199.139 100.049C197.48 100.049 196.491 100.71 196.172 102.031L193.916 101.826L193.998 99.0918C194.135 99.028 194.358 98.946 194.668 98.8457C194.978 98.7454 195.37 98.6497 195.844 98.5586C196.318 98.4583 196.865 98.3763 197.484 98.3125C198.104 98.2396 198.792 98.2031 199.549 98.2031C200.734 98.2031 201.75 98.2897 202.598 98.4629C203.445 98.627 204.138 98.8913 204.676 99.2559C205.223 99.6204 205.624 100.094 205.879 100.678C206.134 101.252 206.262 101.954 206.262 102.783V107.281ZM199.809 104.902C198.852 104.902 198.109 105.098 197.58 105.49C197.051 105.882 196.787 106.434 196.787 107.145C196.787 107.482 196.846 107.755 196.965 107.965C197.083 108.165 197.243 108.361 197.443 108.553C197.653 108.735 197.899 108.876 198.182 108.977C198.473 109.077 198.783 109.127 199.111 109.127C199.558 109.127 199.964 109.068 200.328 108.949C200.693 108.831 201.003 108.658 201.258 108.43C201.522 108.193 201.723 107.938 201.859 107.664C202.005 107.391 202.078 107.04 202.078 106.611V105.203C201.695 105.094 201.317 105.016 200.943 104.971C200.57 104.925 200.191 104.902 199.809 104.902ZM208.941 111C208.941 110.982 208.941 110.918 208.941 110.809C208.941 110.69 208.941 110.553 208.941 110.398C208.941 110.243 208.937 110.075 208.928 109.893C208.928 109.71 208.928 109.542 208.928 109.387C208.928 109.232 208.928 109.1 208.928 108.99C208.928 108.881 208.928 108.812 208.928 108.785C209.32 108.785 209.639 108.776 209.885 108.758C210.131 108.74 210.322 108.694 210.459 108.621C210.596 108.548 210.687 108.439 210.732 108.293C210.787 108.147 210.814 107.942 210.814 107.678V101.471C210.814 101.298 210.778 101.165 210.705 101.074C210.632 100.974 210.518 100.906 210.363 100.869C210.217 100.824 210.031 100.796 209.803 100.787C209.575 100.778 209.311 100.773 209.01 100.773V98.5859C209.402 98.5859 209.775 98.5905 210.131 98.5996C210.486 98.5996 210.828 98.5996 211.156 98.5996C211.785 98.5996 212.396 98.5951 212.988 98.5859C213.581 98.5768 214.205 98.5586 214.861 98.5312V100.582C215.117 100.281 215.413 99.9987 215.75 99.7344C216.087 99.4609 216.461 99.224 216.871 99.0234C217.281 98.8138 217.728 98.6497 218.211 98.5312C218.694 98.4036 219.209 98.3307 219.756 98.3125C220.531 98.3125 221.21 98.4082 221.793 98.5996C222.385 98.791 222.878 99.0918 223.27 99.502C223.671 99.9121 223.971 100.441 224.172 101.088C224.372 101.735 224.473 102.51 224.473 103.412V107.965C224.473 108.193 224.509 108.361 224.582 108.471C224.655 108.58 224.76 108.658 224.896 108.703C225.042 108.749 225.22 108.776 225.43 108.785C225.639 108.785 225.881 108.785 226.154 108.785V111C225.872 111 225.598 111 225.334 111C225.07 111 224.796 111 224.514 111C224.231 110.991 223.93 110.986 223.611 110.986C223.292 110.977 222.941 110.973 222.559 110.973C221.848 110.973 221.173 110.977 220.535 110.986C219.906 110.995 219.277 111 218.648 111V108.785C219.059 108.785 219.373 108.776 219.592 108.758C219.82 108.73 219.984 108.68 220.084 108.607C220.184 108.535 220.243 108.43 220.262 108.293C220.28 108.156 220.289 107.974 220.289 107.746V104C220.289 103.499 220.253 103.057 220.18 102.674C220.107 102.291 219.984 101.972 219.811 101.717C219.637 101.462 219.405 101.27 219.113 101.143C218.822 101.006 218.462 100.938 218.033 100.938C217.669 100.938 217.336 100.979 217.035 101.061C216.743 101.133 216.479 101.234 216.242 101.361C216.014 101.48 215.814 101.621 215.641 101.785C215.467 101.949 215.322 102.113 215.203 102.277C215.103 102.569 215.039 102.893 215.012 103.248C214.993 103.594 214.984 103.973 214.984 104.383V107.746C214.984 108.01 215.021 108.211 215.094 108.348C215.167 108.484 215.281 108.585 215.436 108.648C215.59 108.712 215.791 108.753 216.037 108.771C216.283 108.781 216.579 108.785 216.926 108.785V111C216.589 111 216.265 111 215.955 111C215.645 111 215.322 111 214.984 111C214.656 110.991 214.305 110.986 213.932 110.986C213.567 110.977 213.161 110.973 212.715 110.973C211.958 110.973 211.284 110.977 210.691 110.986C210.108 110.995 209.525 111 208.941 111ZM242.629 107.951C242.629 108.206 242.706 108.416 242.861 108.58C243.016 108.735 243.312 108.817 243.75 108.826H244.42L244.393 111C244.028 111 243.641 111 243.23 111C242.82 110.991 242.424 110.986 242.041 110.986C241.467 110.995 240.893 111 240.318 111C239.753 111.009 239.184 111.023 238.609 111.041C238.609 110.977 238.609 110.872 238.609 110.727C238.609 110.572 238.609 110.408 238.609 110.234C238.609 110.052 238.605 109.874 238.596 109.701C238.596 109.528 238.596 109.382 238.596 109.264C238.158 109.883 237.557 110.38 236.791 110.754C236.025 111.128 235.109 111.314 234.043 111.314C233.113 111.314 232.266 111.16 231.5 110.85C230.743 110.531 230.096 110.089 229.559 109.523C229.021 108.949 228.602 108.266 228.301 107.473C228.009 106.671 227.863 105.786 227.863 104.82C227.863 103.799 228.014 102.883 228.314 102.072C228.624 101.261 229.057 100.573 229.613 100.008C230.169 99.4427 230.839 99.0143 231.623 98.7227C232.416 98.4219 233.291 98.2715 234.248 98.2715C235.132 98.2715 235.916 98.4173 236.6 98.709C237.292 98.9915 237.903 99.4062 238.432 99.9531L238.445 96.166C238.445 95.9746 238.413 95.8242 238.35 95.7148C238.286 95.5964 238.195 95.5098 238.076 95.4551C237.967 95.3913 237.826 95.3503 237.652 95.332C237.488 95.3138 237.297 95.3047 237.078 95.3047C236.978 95.2956 236.873 95.2956 236.764 95.3047C236.663 95.3047 236.559 95.3047 236.449 95.3047V93.1172C236.941 93.1263 237.424 93.1263 237.898 93.1172C238.382 93.099 238.919 93.0898 239.512 93.0898C240.068 93.0807 240.601 93.0762 241.111 93.0762C241.622 93.0671 242.128 93.0534 242.629 93.0352V107.951ZM235.328 100.568C234.818 100.568 234.362 100.669 233.961 100.869C233.569 101.061 233.236 101.339 232.963 101.703C232.689 102.059 232.48 102.496 232.334 103.016C232.188 103.535 232.115 104.123 232.115 104.779C232.115 105.426 232.184 106.005 232.32 106.516C232.466 107.026 232.676 107.459 232.949 107.814C233.223 108.17 233.555 108.443 233.947 108.635C234.348 108.817 234.804 108.908 235.314 108.908C235.852 108.908 236.326 108.812 236.736 108.621C237.146 108.43 237.488 108.156 237.762 107.801C238.035 107.436 238.24 106.999 238.377 106.488C238.514 105.978 238.582 105.408 238.582 104.779C238.582 104.141 238.505 103.562 238.35 103.043C238.204 102.523 237.99 102.081 237.707 101.717C237.424 101.352 237.083 101.07 236.682 100.869C236.281 100.669 235.829 100.568 235.328 100.568ZM266.582 98.1074H263.957C263.921 97.9889 263.889 97.875 263.861 97.7656C263.843 97.6562 263.82 97.5469 263.793 97.4375C263.638 96.6263 263.292 96.0065 262.754 95.5781C262.216 95.1406 261.4 94.9219 260.307 94.9219C259.86 94.9219 259.459 94.9766 259.104 95.0859C258.748 95.1953 258.443 95.3503 258.188 95.5508C257.941 95.7513 257.75 95.9883 257.613 96.2617C257.477 96.5352 257.408 96.8405 257.408 97.1777C257.408 97.6973 257.568 98.1257 257.887 98.4629C258.206 98.8001 258.639 99.1055 259.186 99.3789C259.732 99.6432 260.366 99.903 261.086 100.158C261.806 100.404 262.567 100.701 263.369 101.047C263.898 101.266 264.395 101.525 264.859 101.826C265.333 102.118 265.748 102.464 266.104 102.865C266.459 103.257 266.737 103.717 266.938 104.246C267.147 104.766 267.252 105.363 267.252 106.037C267.252 106.757 267.111 107.441 266.828 108.088C266.546 108.726 266.14 109.291 265.611 109.783C265.092 110.266 264.454 110.649 263.697 110.932C262.941 111.214 262.089 111.355 261.141 111.355C260.685 111.355 260.229 111.314 259.773 111.232C259.327 111.16 258.894 111.05 258.475 110.904C258.064 110.758 257.677 110.581 257.312 110.371C256.957 110.161 256.643 109.924 256.369 109.66V111H253.375V105.449H256C256.055 105.686 256.109 105.905 256.164 106.105C256.255 106.57 256.387 106.985 256.561 107.35C256.743 107.705 256.984 108.006 257.285 108.252C257.586 108.498 257.955 108.685 258.393 108.812C258.83 108.94 259.354 109.004 259.965 109.004C260.43 109.004 260.849 108.949 261.223 108.84C261.605 108.73 261.934 108.576 262.207 108.375C262.48 108.165 262.69 107.91 262.836 107.609C262.982 107.299 263.055 106.953 263.055 106.57C263.055 106.051 262.895 105.618 262.576 105.271C262.266 104.916 261.852 104.606 261.332 104.342C260.822 104.077 260.243 103.836 259.596 103.617C258.949 103.389 258.292 103.139 257.627 102.865C256.187 102.273 255.116 101.576 254.414 100.773C253.721 99.9714 253.375 99.0007 253.375 97.8613C253.375 97.1413 253.507 96.4714 253.771 95.8516C254.045 95.2318 254.437 94.694 254.947 94.2383C255.467 93.7826 256.096 93.4271 256.834 93.1719C257.572 92.9076 258.415 92.7754 259.363 92.7754C260.184 92.7754 260.99 92.8757 261.783 93.0762C262.585 93.2767 263.337 93.6549 264.039 94.2109C264.039 94.0833 264.035 93.9557 264.025 93.8281C264.025 93.7005 264.025 93.582 264.025 93.4727V93.1035C264.08 93.1035 264.199 93.1035 264.381 93.1035C264.572 93.1035 264.791 93.1081 265.037 93.1172C265.292 93.1172 265.557 93.1172 265.83 93.1172C266.113 93.1172 266.363 93.1172 266.582 93.1172V98.1074ZM277.027 98.2031C278.039 98.2031 279.001 98.3444 279.912 98.627C280.824 98.9095 281.621 99.3288 282.305 99.8848C282.988 100.441 283.531 101.133 283.932 101.963C284.333 102.783 284.533 103.731 284.533 104.807C284.533 105.855 284.337 106.789 283.945 107.609C283.553 108.43 283.02 109.104 282.346 109.633C281.671 110.161 280.878 110.576 279.967 110.877C279.055 111.169 278.076 111.314 277.027 111.314C275.97 111.314 274.986 111.169 274.074 110.877C273.163 110.585 272.365 110.175 271.682 109.646C271.007 109.118 270.474 108.443 270.082 107.623C269.699 106.803 269.508 105.864 269.508 104.807C269.508 103.768 269.699 102.838 270.082 102.018C270.465 101.197 270.993 100.505 271.668 99.9395C272.342 99.3743 273.135 98.946 274.047 98.6543C274.967 98.3535 275.961 98.2031 277.027 98.2031ZM277.041 100.459C276.002 100.459 275.2 100.842 274.635 101.607C274.07 102.373 273.787 103.435 273.787 104.793C273.787 106.16 274.065 107.227 274.621 107.992C275.177 108.749 275.97 109.127 277 109.127C277.51 109.127 277.966 109.027 278.367 108.826C278.768 108.626 279.11 108.339 279.393 107.965C279.675 107.591 279.889 107.131 280.035 106.584C280.181 106.037 280.254 105.422 280.254 104.738C280.254 104.073 280.181 103.476 280.035 102.947C279.889 102.419 279.68 101.972 279.406 101.607C279.133 101.234 278.796 100.951 278.395 100.76C277.993 100.559 277.542 100.459 277.041 100.459ZM299.572 103.33H297.193C297.066 102.318 296.747 101.576 296.236 101.102C295.735 100.618 295.079 100.377 294.268 100.377C293.748 100.377 293.283 100.486 292.873 100.705C292.472 100.915 292.13 101.215 291.848 101.607C291.574 101.999 291.365 102.473 291.219 103.029C291.082 103.576 291.014 104.182 291.014 104.848C291.014 105.531 291.087 106.124 291.232 106.625C291.387 107.117 291.606 107.555 291.889 107.938C292.18 108.32 292.531 108.617 292.941 108.826C293.352 109.027 293.821 109.127 294.35 109.127C295.133 109.127 295.758 108.904 296.223 108.457C296.688 108.01 296.988 107.423 297.125 106.693L300.037 107.062C299.91 107.755 299.673 108.37 299.326 108.908C298.98 109.446 298.538 109.883 298 110.221C297.471 110.558 296.852 110.822 296.141 111.014C295.439 111.214 294.664 111.314 293.816 111.314C292.741 111.314 291.766 111.16 290.891 110.85C290.016 110.54 289.268 110.116 288.648 109.578C288.038 109.04 287.564 108.37 287.227 107.568C286.889 106.766 286.721 105.868 286.721 104.875C286.721 103.918 286.889 103.038 287.227 102.236C287.573 101.434 288.038 100.746 288.621 100.172C289.204 99.5885 289.883 99.1374 290.658 98.8184C291.442 98.4902 292.276 98.3262 293.16 98.3262C293.844 98.3262 294.509 98.4219 295.156 98.6133C295.812 98.7956 296.4 99.1191 296.92 99.584L297.084 98.5586C297.248 98.5677 297.435 98.5768 297.645 98.5859C297.863 98.5951 298.082 98.6042 298.301 98.6133C298.529 98.6224 298.752 98.6361 298.971 98.6543C299.189 98.6634 299.39 98.6771 299.572 98.6953V103.33ZM305.369 92.748C305.706 92.748 306.016 92.7891 306.299 92.8711C306.59 92.944 306.841 93.0534 307.051 93.1992C307.27 93.3359 307.438 93.5091 307.557 93.7188C307.675 93.9284 307.734 94.1608 307.734 94.416C307.734 94.9264 307.52 95.3366 307.092 95.6465C306.673 95.9564 306.098 96.1113 305.369 96.1113C304.658 96.1113 304.089 95.9701 303.66 95.6875C303.232 95.4049 303.018 94.9811 303.018 94.416C303.018 93.9147 303.232 93.5137 303.66 93.2129C304.089 92.903 304.658 92.748 305.369 92.748ZM307.707 107.527C307.707 107.81 307.725 108.033 307.762 108.197C307.807 108.361 307.885 108.489 307.994 108.58C308.113 108.662 308.277 108.717 308.486 108.744C308.696 108.771 308.969 108.785 309.307 108.785V111C308.997 111 308.65 111 308.268 111C307.894 110.991 307.511 110.986 307.119 110.986C306.736 110.986 306.363 110.986 305.998 110.986C305.643 110.977 305.328 110.973 305.055 110.973C304.727 110.973 304.421 110.977 304.139 110.986C303.856 110.986 303.587 110.986 303.332 110.986C303.077 110.986 302.826 110.991 302.58 111C302.334 111 302.083 111 301.828 111V108.785C302.211 108.785 302.512 108.776 302.73 108.758C302.958 108.73 303.132 108.676 303.25 108.594C303.368 108.503 303.446 108.375 303.482 108.211C303.519 108.047 303.537 107.819 303.537 107.527V101.539C303.537 101.348 303.505 101.202 303.441 101.102C303.378 101.001 303.277 100.928 303.141 100.883C303.004 100.828 302.831 100.796 302.621 100.787C302.421 100.778 302.179 100.773 301.896 100.773C301.896 100.4 301.896 100.035 301.896 99.6797C301.906 99.3242 301.91 98.9596 301.91 98.5859C302.293 98.5859 302.658 98.5905 303.004 98.5996C303.35 98.5996 303.688 98.5996 304.016 98.5996C304.608 98.5996 305.21 98.5951 305.82 98.5859C306.44 98.5768 307.069 98.5586 307.707 98.5312V107.527ZM324.387 107.281C324.387 107.655 324.396 107.947 324.414 108.156C324.441 108.366 324.492 108.521 324.564 108.621C324.646 108.712 324.756 108.767 324.893 108.785C325.029 108.803 325.216 108.812 325.453 108.812H326.109V111C326.036 111 325.877 111 325.631 111C325.385 111 325.116 111 324.824 111C324.533 110.991 324.25 110.986 323.977 110.986C323.712 110.986 323.525 110.986 323.416 110.986C323.161 110.986 322.928 110.991 322.719 111C322.509 111 322.304 111 322.104 111C321.912 111.009 321.712 111.014 321.502 111.014C321.292 111.023 321.06 111.032 320.805 111.041L320.395 109.264C320.194 109.583 319.957 109.87 319.684 110.125C319.41 110.371 319.082 110.585 318.699 110.768C318.316 110.941 317.874 111.073 317.373 111.164C316.872 111.264 316.298 111.314 315.65 111.314C314.867 111.314 314.174 111.21 313.572 111C312.98 110.799 312.483 110.526 312.082 110.18C311.69 109.833 311.394 109.428 311.193 108.963C310.993 108.489 310.893 107.988 310.893 107.459C310.893 106.848 311.025 106.297 311.289 105.805C311.562 105.312 311.95 104.898 312.451 104.561C312.962 104.214 313.577 103.95 314.297 103.768C315.017 103.576 315.833 103.48 316.744 103.48C317.337 103.48 317.929 103.517 318.521 103.59C319.114 103.654 319.674 103.754 320.203 103.891V102.318C320.203 101.626 319.962 101.074 319.479 100.664C319.005 100.254 318.266 100.049 317.264 100.049C315.605 100.049 314.616 100.71 314.297 102.031L312.041 101.826L312.123 99.0918C312.26 99.028 312.483 98.946 312.793 98.8457C313.103 98.7454 313.495 98.6497 313.969 98.5586C314.443 98.4583 314.99 98.3763 315.609 98.3125C316.229 98.2396 316.917 98.2031 317.674 98.2031C318.859 98.2031 319.875 98.2897 320.723 98.4629C321.57 98.627 322.263 98.8913 322.801 99.2559C323.348 99.6204 323.749 100.094 324.004 100.678C324.259 101.252 324.387 101.954 324.387 102.783V107.281ZM317.934 104.902C316.977 104.902 316.234 105.098 315.705 105.49C315.176 105.882 314.912 106.434 314.912 107.145C314.912 107.482 314.971 107.755 315.09 107.965C315.208 108.165 315.368 108.361 315.568 108.553C315.778 108.735 316.024 108.876 316.307 108.977C316.598 109.077 316.908 109.127 317.236 109.127C317.683 109.127 318.089 109.068 318.453 108.949C318.818 108.831 319.128 108.658 319.383 108.43C319.647 108.193 319.848 107.938 319.984 107.664C320.13 107.391 320.203 107.04 320.203 106.611V105.203C319.82 105.094 319.442 105.016 319.068 104.971C318.695 104.925 318.316 104.902 317.934 104.902ZM333.027 107.377C333.027 107.669 333.05 107.906 333.096 108.088C333.141 108.27 333.223 108.411 333.342 108.512C333.469 108.612 333.638 108.685 333.848 108.73C334.066 108.767 334.344 108.785 334.682 108.785V111C334.372 111 334.066 111 333.766 111C333.465 111 333.155 111 332.836 111C332.526 110.991 332.198 110.986 331.852 110.986C331.505 110.977 331.136 110.973 330.744 110.973C330.015 110.973 329.372 110.977 328.816 110.986C328.26 110.995 327.7 111 327.135 111V108.785C327.563 108.785 327.891 108.758 328.119 108.703C328.356 108.648 328.529 108.557 328.639 108.43C328.748 108.293 328.812 108.115 328.83 107.896C328.848 107.678 328.857 107.404 328.857 107.076V96.2617C328.857 96.043 328.821 95.8698 328.748 95.7422C328.684 95.6146 328.579 95.5189 328.434 95.4551C328.297 95.3913 328.124 95.3503 327.914 95.332C327.714 95.3138 327.477 95.3047 327.203 95.3047V93.1172C327.349 93.1172 327.572 93.1172 327.873 93.1172C328.174 93.1172 328.488 93.1172 328.816 93.1172C329.145 93.1081 329.445 93.1035 329.719 93.1035C329.992 93.0944 330.174 93.0898 330.266 93.0898C330.721 93.0898 331.173 93.0853 331.619 93.0762C332.066 93.0671 332.535 93.0534 333.027 93.0352V107.377ZM347.684 102.346H345.523C345.378 101.68 345.031 101.152 344.484 100.76C343.947 100.368 343.231 100.158 342.338 100.131C341.973 100.131 341.659 100.167 341.395 100.24C341.139 100.313 340.93 100.413 340.766 100.541C340.602 100.66 340.479 100.801 340.396 100.965C340.324 101.12 340.287 101.284 340.287 101.457C340.287 101.676 340.355 101.867 340.492 102.031C340.629 102.186 340.825 102.332 341.08 102.469C341.335 102.605 341.645 102.738 342.01 102.865C342.383 102.984 342.807 103.111 343.281 103.248C344.083 103.467 344.79 103.699 345.4 103.945C346.02 104.182 346.54 104.46 346.959 104.779C347.387 105.098 347.711 105.472 347.93 105.9C348.148 106.32 348.258 106.83 348.258 107.432C348.258 108.115 348.112 108.703 347.82 109.195C347.529 109.678 347.141 110.079 346.658 110.398C346.184 110.717 345.642 110.95 345.031 111.096C344.421 111.242 343.792 111.314 343.145 111.314C342.215 111.314 341.436 111.201 340.807 110.973C340.187 110.736 339.676 110.38 339.275 109.906L339.221 110.986C338.792 110.986 338.373 110.973 337.963 110.945C337.562 110.918 337.152 110.904 336.732 110.904V107.021H339.207C339.243 107.432 339.353 107.792 339.535 108.102C339.727 108.411 339.968 108.671 340.26 108.881C340.551 109.081 340.884 109.232 341.258 109.332C341.632 109.432 342.028 109.482 342.447 109.482C343.085 109.482 343.609 109.364 344.02 109.127C344.43 108.89 344.635 108.566 344.635 108.156C344.635 107.883 344.521 107.65 344.293 107.459C344.074 107.258 343.778 107.076 343.404 106.912C343.04 106.748 342.616 106.589 342.133 106.434C341.659 106.279 341.167 106.11 340.656 105.928C340.046 105.709 339.494 105.486 339.002 105.258C338.519 105.03 338.104 104.77 337.758 104.479C337.421 104.187 337.161 103.845 336.979 103.453C336.796 103.061 336.705 102.592 336.705 102.045C336.705 101.48 336.81 100.969 337.02 100.514C337.238 100.049 337.553 99.6569 337.963 99.3379C338.373 99.0098 338.879 98.7591 339.48 98.5859C340.082 98.4036 340.766 98.3125 341.531 98.3125C342.333 98.3125 343.081 98.4173 343.773 98.627C344.466 98.8275 345.013 99.1328 345.414 99.543C345.423 99.4883 345.437 99.4062 345.455 99.2969C345.482 99.1784 345.51 99.0599 345.537 98.9414C345.574 98.8047 345.605 98.6543 345.633 98.4902C345.906 98.5176 346.171 98.5449 346.426 98.5723C346.645 98.5905 346.868 98.6087 347.096 98.627C347.333 98.6452 347.529 98.6634 347.684 98.6816V102.346Z" fill="white"/>
</svg>
